<svg xmlns="http://www.w3.org/2000/svg" version="1.1" xmlns:xlink="http://www.w3.org/1999/xlink" viewBox="0 0 200 200"><rect width="200" height="200" fill="url('#gradient')"></rect><defs><linearGradient id="gradient" gradientTransform="rotate(187 0.5 0.5)"><stop offset="0%" stop-color="#eb5e12"></stop><stop offset="100%" stop-color="#321fcd"></stop></linearGradient></defs><g><g fill="#ceeb1e" transform="matrix(1.6147657019980288,0,0,1.6147657019980288,12.049013260550836,108.19010352273214)" stroke="#060606" stroke-width="1.2"><path d="M9.98 0L9.15-2.66L4.45-2.66L3.63 0L-0.03 0L5.19-14.22L8.41-14.22L13.66 0L9.98 0ZM6.80-10.23L5.27-5.30L8.33-5.30L6.80-10.23ZM20.83 0L20.73-1.14Q19.69 0.20 17.91 0.20L17.91 0.20Q16.17 0.20 15.28-0.82Q14.38-1.83 14.38-3.72L14.38-3.72L14.38-10.57L17.68-10.57L17.68-3.70Q17.68-2.34 18.99-2.34L18.99-2.34Q20.13-2.34 20.61-3.15L20.61-3.15L20.61-10.57L23.92-10.57L23.92 0L20.83 0ZM32.17-10.64L32.11-7.59L31.03-7.67Q29.47-7.67 29.03-6.69L29.03-6.69L29.03 0L25.74 0L25.74-10.57L28.83-10.57L28.94-9.21Q29.77-10.76 31.25-10.76L31.25-10.76Q31.78-10.76 32.17-10.64L32.17-10.64ZM42.25 0L38.96 0Q38.78-0.32 38.64-0.95L38.64-0.95Q37.73 0.20 36.10 0.20L36.10 0.20Q34.61 0.20 33.56-0.71Q32.52-1.61 32.52-2.98L32.52-2.98Q32.52-4.70 33.79-5.58Q35.06-6.46 37.48-6.46L37.48-6.46L38.50-6.46L38.50-7.01Q38.50-8.47 37.24-8.47L37.24-8.47Q36.06-8.47 36.06-7.31L36.06-7.31L32.77-7.31Q32.77-8.85 34.08-9.80Q35.38-10.76 37.40-10.76Q39.42-10.76 40.60-9.78Q41.77-8.79 41.80-7.07L41.80-7.07L41.80-2.39Q41.82-0.94 42.25-0.17L42.25-0.17L42.25 0ZM36.89-2.15L36.89-2.15Q37.51-2.15 37.92-2.41Q38.32-2.68 38.50-3.01L38.50-3.01L38.50-4.70L37.54-4.70Q35.82-4.70 35.82-3.15L35.82-3.15Q35.82-2.71 36.12-2.43Q36.43-2.15 36.89-2.15ZM51.10-3.78L51.10-3.78Q51.10-4.53 50.57-4.95Q50.04-5.37 48.70-5.82Q47.36-6.27 46.51-6.69L46.51-6.69Q43.75-8.05 43.75-10.42L43.75-10.42Q43.75-11.60 44.44-12.50Q45.13-13.41 46.39-13.91Q47.65-14.41 49.22-14.41L49.22-14.41Q50.75-14.41 51.97-13.87Q53.18-13.32 53.86-12.31Q54.53-11.30 54.53-10L54.53-10L51.11-10Q51.11-10.87 50.58-11.35Q50.05-11.83 49.14-11.83L49.14-11.83Q48.22-11.83 47.69-11.42Q47.16-11.02 47.16-10.39L47.16-10.39Q47.16-9.84 47.74-9.40Q48.33-8.96 49.80-8.48Q51.28-8.01 52.23-7.46L52.23-7.46Q54.53-6.13 54.53-3.80L54.53-3.80Q54.53-1.93 53.13-0.87Q51.72 0.20 49.27 0.20L49.27 0.20Q47.54 0.20 46.14-0.42Q44.74-1.04 44.03-2.12Q43.32-3.20 43.32-4.61L43.32-4.61L46.76-4.61Q46.76-3.47 47.35-2.92Q47.94-2.38 49.27-2.38L49.27-2.38Q50.12-2.38 50.61-2.75Q51.10-3.12 51.10-3.78ZM58.69-10.57L60.36-4.61L62.12-10.57L65.64-10.57L61.34 1.77L61.15 2.22Q60.23 4.27 57.91 4.27L57.91 4.27Q57.27 4.27 56.55 4.07L56.55 4.07L56.55 1.72L56.98 1.72Q57.68 1.72 58.04 1.52Q58.41 1.32 58.58 0.80L58.58 0.80L58.85 0.10L55.18-10.57L58.69-10.57ZM66.44-10.57L69.52-10.57L69.63-9.33Q70.72-10.76 72.65-10.76L72.65-10.76Q74.30-10.76 75.11-9.78Q75.93-8.79 75.96-6.81L75.96-6.81L75.96 0L72.66 0L72.66-6.67Q72.66-7.47 72.33-7.85Q72.01-8.22 71.16-8.22L71.16-8.22Q70.20-8.22 69.73-7.46L69.73-7.46L69.73 0L66.44 0L66.44-10.57ZM82.25-2.34L82.25-2.34Q82.94-2.34 83.32-2.72Q83.70-3.10 83.69-3.77L83.69-3.77L86.78-3.77Q86.78-2.03 85.53-0.92Q84.29 0.20 82.32 0.20L82.32 0.20Q80.02 0.20 78.69-1.25Q77.36-2.70 77.36-5.25L77.36-5.25L77.36-5.39Q77.36-6.99 77.95-8.22Q78.54-9.44 79.66-10.10Q80.77-10.76 82.29-10.76L82.29-10.76Q84.36-10.76 85.57-9.62Q86.78-8.48 86.78-6.52L86.78-6.52L83.69-6.52Q83.69-7.34 83.29-7.78Q82.89-8.22 82.22-8.22L82.22-8.22Q80.94-8.22 80.72-6.59L80.72-6.59Q80.65-6.07 80.65-5.17L80.65-5.17Q80.65-3.57 81.04-2.96Q81.42-2.34 82.25-2.34ZM94.60-7.40L94.60-4.85L88.73-4.85L88.73-7.40L94.60-7.40ZM100.29-14.22L102.62-9.49L104.94-14.22L108.86-14.22L104.88-7.17L108.96 0L105.01 0L102.62-4.81L100.22 0L96.28 0L100.35-7.17L96.39-14.22L100.29-14.22Z"></path></g></g></svg>